<mxfile host="65bd71144e">
    <diagram id="tJJXcjk9e3DQMrtll4f6" name="Page-1">
        <mxGraphModel dx="1274" dy="849" grid="1" gridSize="10" guides="1" tooltips="1" connect="1" arrows="1" fold="1" page="1" pageScale="1" pageWidth="850" pageHeight="1100" math="0" shadow="0">
            <root>
                <mxCell id="0"/>
                <mxCell id="1" parent="0"/>
                <mxCell id="110" value="FPU_normalization" style="whiteSpace=wrap;html=1;fillColor=#ffe6cc;strokeColor=#d79b00;" vertex="1" parent="1">
                    <mxGeometry x="760" y="920" width="120" height="100" as="geometry"/>
                </mxCell>
                <mxCell id="95" value="LOPD_unit" style="whiteSpace=wrap;html=1;fillColor=#ffe6cc;strokeColor=#d79b00;" vertex="1" parent="1">
                    <mxGeometry x="760" y="720" width="120" height="100" as="geometry"/>
                </mxCell>
                <mxCell id="6" value="" style="group" parent="1" vertex="1" connectable="0">
                    <mxGeometry x="80" y="200" width="400" height="40" as="geometry"/>
                </mxCell>
                <mxCell id="2" value="Sign" style="whiteSpace=wrap;html=1;" parent="6" vertex="1">
                    <mxGeometry x="40" width="40" height="40" as="geometry"/>
                </mxCell>
                <mxCell id="3" value="Exponent" style="whiteSpace=wrap;html=1;" parent="6" vertex="1">
                    <mxGeometry x="80" width="120" height="40" as="geometry"/>
                </mxCell>
                <mxCell id="4" value="Mantissa" style="whiteSpace=wrap;html=1;" parent="6" vertex="1">
                    <mxGeometry x="200" width="200" height="40" as="geometry"/>
                </mxCell>
                <mxCell id="5" value="A" style="whiteSpace=wrap;html=1;fillColor=#fff2cc;strokeColor=#d6b656;" parent="6" vertex="1">
                    <mxGeometry width="40" height="40" as="geometry"/>
                </mxCell>
                <mxCell id="7" value="" style="group" parent="1" vertex="1" connectable="0">
                    <mxGeometry x="720" y="200" width="400" height="40" as="geometry"/>
                </mxCell>
                <mxCell id="8" value="Sign" style="whiteSpace=wrap;html=1;" parent="7" vertex="1">
                    <mxGeometry x="40" width="40" height="40" as="geometry"/>
                </mxCell>
                <mxCell id="9" value="Exponent" style="whiteSpace=wrap;html=1;" parent="7" vertex="1">
                    <mxGeometry x="80" width="120" height="40" as="geometry"/>
                </mxCell>
                <mxCell id="10" value="Mantissa" style="whiteSpace=wrap;html=1;" parent="7" vertex="1">
                    <mxGeometry x="200" width="200" height="40" as="geometry"/>
                </mxCell>
                <mxCell id="11" value="B" style="whiteSpace=wrap;html=1;fillColor=#fff2cc;strokeColor=#d6b656;" parent="7" vertex="1">
                    <mxGeometry width="40" height="40" as="geometry"/>
                </mxCell>
                <mxCell id="21" style="edgeStyle=none;html=1;exitX=0.25;exitY=1;exitDx=0;exitDy=0;entryX=0.192;entryY=0.058;entryDx=0;entryDy=0;entryPerimeter=0;" parent="1" source="12" edge="1" target="137">
                    <mxGeometry relative="1" as="geometry">
                        <mxPoint x="150" y="600.3225806451613" as="targetPoint"/>
                    </mxGeometry>
                </mxCell>
                <mxCell id="27" style="edgeStyle=none;html=1;exitX=0.75;exitY=1;exitDx=0;exitDy=0;entryX=0;entryY=0.75;entryDx=0;entryDy=0;" parent="1" source="12" target="37" edge="1">
                    <mxGeometry relative="1" as="geometry">
                        <mxPoint x="360" y="560" as="targetPoint"/>
                        <Array as="points">
                            <mxPoint x="210" y="540"/>
                        </Array>
                    </mxGeometry>
                </mxCell>
                <mxCell id="32" style="edgeStyle=none;html=1;exitX=1;exitY=0.5;exitDx=0;exitDy=0;entryX=0;entryY=0.25;entryDx=0;entryDy=0;" parent="1" source="12" target="37" edge="1">
                    <mxGeometry relative="1" as="geometry">
                        <mxPoint x="460" y="420" as="targetPoint"/>
                    </mxGeometry>
                </mxCell>
                <mxCell id="12" value="EXP_diff_value" style="whiteSpace=wrap;html=1;fillColor=#ffe6cc;strokeColor=#d79b00;" parent="1" vertex="1">
                    <mxGeometry x="120" y="360" width="120" height="120" as="geometry"/>
                </mxCell>
                <mxCell id="13" style="edgeStyle=none;html=1;exitX=0.5;exitY=1;exitDx=0;exitDy=0;entryX=0.25;entryY=0;entryDx=0;entryDy=0;" parent="1" source="3" target="12" edge="1">
                    <mxGeometry relative="1" as="geometry">
                        <Array as="points">
                            <mxPoint x="220" y="280"/>
                            <mxPoint x="150" y="280"/>
                        </Array>
                    </mxGeometry>
                </mxCell>
                <mxCell id="14" style="edgeStyle=none;html=1;exitX=0.5;exitY=1;exitDx=0;exitDy=0;entryX=0.75;entryY=0;entryDx=0;entryDy=0;" parent="1" source="9" target="12" edge="1">
                    <mxGeometry relative="1" as="geometry">
                        <Array as="points">
                            <mxPoint x="860" y="290"/>
                            <mxPoint x="210" y="290"/>
                        </Array>
                    </mxGeometry>
                </mxCell>
                <mxCell id="16" value="i_exp_b" style="text;html=1;align=center;verticalAlign=middle;resizable=0;points=[];autosize=1;strokeColor=none;fillColor=none;rotation=-90;" parent="1" vertex="1">
                    <mxGeometry x="164" y="315" width="70" height="30" as="geometry"/>
                </mxCell>
                <mxCell id="17" value="" style="endArrow=none;html=1;" parent="1" edge="1">
                    <mxGeometry width="50" height="50" relative="1" as="geometry">
                        <mxPoint x="215" y="325" as="sourcePoint"/>
                        <mxPoint x="205" y="335" as="targetPoint"/>
                        <Array as="points">
                            <mxPoint x="205" y="335"/>
                        </Array>
                    </mxGeometry>
                </mxCell>
                <mxCell id="18" value="8" style="edgeLabel;html=1;align=center;verticalAlign=middle;resizable=0;points=[];labelBackgroundColor=none;rotation=-90;" parent="17" vertex="1" connectable="0">
                    <mxGeometry x="-0.6677" relative="1" as="geometry">
                        <mxPoint x="7" y="3" as="offset"/>
                    </mxGeometry>
                </mxCell>
                <mxCell id="22" value="" style="group" parent="1" vertex="1" connectable="0">
                    <mxGeometry x="124" y="295" width="36" height="75" as="geometry"/>
                </mxCell>
                <mxCell id="15" value="i_exp_a" style="text;html=1;align=center;verticalAlign=middle;resizable=0;points=[];autosize=1;strokeColor=none;fillColor=none;rotation=-90;" parent="22" vertex="1">
                    <mxGeometry x="-20" y="20" width="70" height="30" as="geometry"/>
                </mxCell>
                <mxCell id="19" value="" style="endArrow=none;html=1;" parent="22" edge="1">
                    <mxGeometry width="50" height="50" relative="1" as="geometry">
                        <mxPoint x="31" y="30" as="sourcePoint"/>
                        <mxPoint x="21" y="40" as="targetPoint"/>
                        <Array as="points">
                            <mxPoint x="21" y="40"/>
                        </Array>
                    </mxGeometry>
                </mxCell>
                <mxCell id="20" value="8" style="edgeLabel;html=1;align=center;verticalAlign=middle;resizable=0;points=[];labelBackgroundColor=none;rotation=-90;" parent="19" vertex="1" connectable="0">
                    <mxGeometry x="-0.6677" relative="1" as="geometry">
                        <mxPoint x="7" y="3" as="offset"/>
                    </mxGeometry>
                </mxCell>
                <mxCell id="43" value="" style="shape=waypoint;sketch=0;size=6;pointerEvents=1;points=[];fillColor=none;resizable=0;rotatable=0;perimeter=centerPerimeter;snapToPoint=1;" vertex="1" parent="22">
                    <mxGeometry x="16" y="55" width="20" height="20" as="geometry"/>
                </mxCell>
                <mxCell id="23" value="" style="group" parent="1" vertex="1" connectable="0">
                    <mxGeometry x="125" y="486" width="65" height="70" as="geometry"/>
                </mxCell>
                <mxCell id="24" value="o_exp_greater" style="text;html=1;align=center;verticalAlign=middle;resizable=0;points=[];autosize=1;strokeColor=none;fillColor=none;rotation=-90;" parent="23" vertex="1">
                    <mxGeometry x="-35" y="20" width="100" height="30" as="geometry"/>
                </mxCell>
                <mxCell id="25" value="" style="endArrow=none;html=1;" parent="23" edge="1">
                    <mxGeometry width="50" height="50" relative="1" as="geometry">
                        <mxPoint x="31" y="30" as="sourcePoint"/>
                        <mxPoint x="21" y="40" as="targetPoint"/>
                        <Array as="points">
                            <mxPoint x="21" y="40"/>
                        </Array>
                    </mxGeometry>
                </mxCell>
                <mxCell id="26" value="8" style="edgeLabel;html=1;align=center;verticalAlign=middle;resizable=0;points=[];labelBackgroundColor=none;rotation=-90;" parent="25" vertex="1" connectable="0">
                    <mxGeometry x="-0.6677" relative="1" as="geometry">
                        <mxPoint x="7" y="3" as="offset"/>
                    </mxGeometry>
                </mxCell>
                <mxCell id="45" value="" style="shape=waypoint;sketch=0;size=6;pointerEvents=1;points=[];fillColor=none;resizable=0;rotatable=0;perimeter=centerPerimeter;snapToPoint=1;" vertex="1" parent="23">
                    <mxGeometry x="15" y="-16" width="20" height="20" as="geometry"/>
                </mxCell>
                <mxCell id="28" value="" style="group" parent="1" vertex="1" connectable="0">
                    <mxGeometry x="184" y="480" width="65" height="70" as="geometry"/>
                </mxCell>
                <mxCell id="29" value="o_diff_value" style="text;html=1;align=center;verticalAlign=middle;resizable=0;points=[];autosize=1;strokeColor=none;fillColor=none;rotation=-90;" parent="28" vertex="1">
                    <mxGeometry x="-30" y="20" width="90" height="30" as="geometry"/>
                </mxCell>
                <mxCell id="30" value="" style="endArrow=none;html=1;" parent="28" edge="1">
                    <mxGeometry width="50" height="50" relative="1" as="geometry">
                        <mxPoint x="31" y="30" as="sourcePoint"/>
                        <mxPoint x="21" y="40" as="targetPoint"/>
                        <Array as="points">
                            <mxPoint x="21" y="40"/>
                        </Array>
                    </mxGeometry>
                </mxCell>
                <mxCell id="31" value="8" style="edgeLabel;html=1;align=center;verticalAlign=middle;resizable=0;points=[];labelBackgroundColor=none;rotation=-90;" parent="30" vertex="1" connectable="0">
                    <mxGeometry x="-0.6677" relative="1" as="geometry">
                        <mxPoint x="7" y="3" as="offset"/>
                    </mxGeometry>
                </mxCell>
                <mxCell id="44" value="" style="shape=waypoint;sketch=0;size=6;pointerEvents=1;points=[];fillColor=none;resizable=0;rotatable=0;perimeter=centerPerimeter;snapToPoint=1;" vertex="1" parent="28">
                    <mxGeometry x="16" y="-10" width="20" height="20" as="geometry"/>
                </mxCell>
                <mxCell id="33" value="" style="group;rotation=90;" parent="1" vertex="1" connectable="0">
                    <mxGeometry x="240" y="390" width="78" height="70" as="geometry"/>
                </mxCell>
                <mxCell id="34" value="o_diff_signal" style="text;html=1;align=center;verticalAlign=middle;resizable=0;points=[];autosize=1;strokeColor=none;fillColor=none;rotation=0;" parent="33" vertex="1">
                    <mxGeometry x="-9" y="3" width="90" height="30" as="geometry"/>
                </mxCell>
                <mxCell id="35" value="" style="endArrow=none;html=1;" parent="33" edge="1">
                    <mxGeometry width="50" height="50" relative="1" as="geometry">
                        <mxPoint x="38" y="34" as="sourcePoint"/>
                        <mxPoint x="28" y="24" as="targetPoint"/>
                        <Array as="points">
                            <mxPoint x="28" y="24"/>
                        </Array>
                    </mxGeometry>
                </mxCell>
                <mxCell id="36" value="8" style="edgeLabel;html=1;align=center;verticalAlign=middle;resizable=0;points=[];labelBackgroundColor=none;rotation=0;" parent="35" vertex="1" connectable="0">
                    <mxGeometry x="-0.6677" relative="1" as="geometry">
                        <mxPoint x="7" y="3" as="offset"/>
                    </mxGeometry>
                </mxCell>
                <mxCell id="46" value="" style="shape=waypoint;sketch=0;size=6;pointerEvents=1;points=[];fillColor=none;resizable=0;rotatable=0;perimeter=centerPerimeter;snapToPoint=1;" vertex="1" parent="33">
                    <mxGeometry x="-9" y="20" width="20" height="20" as="geometry"/>
                </mxCell>
                <mxCell id="37" value="MANTISSA_unit" style="whiteSpace=wrap;html=1;fillColor=#ffe6cc;strokeColor=#d79b00;" parent="1" vertex="1">
                    <mxGeometry x="720" y="360" width="200" height="240" as="geometry"/>
                </mxCell>
                <mxCell id="39" value="" style="shape=waypoint;sketch=0;size=6;pointerEvents=1;points=[];fillColor=none;resizable=0;rotatable=0;perimeter=centerPerimeter;snapToPoint=1;" vertex="1" parent="1">
                    <mxGeometry x="720" y="350" width="20" height="20" as="geometry"/>
                </mxCell>
                <mxCell id="40" value="" style="shape=waypoint;sketch=0;size=6;pointerEvents=1;points=[];fillColor=none;resizable=0;rotatable=0;perimeter=centerPerimeter;snapToPoint=1;" vertex="1" parent="1">
                    <mxGeometry x="710" y="410" width="20" height="20" as="geometry"/>
                </mxCell>
                <mxCell id="41" value="" style="shape=waypoint;sketch=0;size=6;pointerEvents=1;points=[];fillColor=none;resizable=0;rotatable=0;perimeter=centerPerimeter;snapToPoint=1;" vertex="1" parent="1">
                    <mxGeometry x="710" y="530" width="20" height="20" as="geometry"/>
                </mxCell>
                <mxCell id="42" value="" style="shape=waypoint;sketch=0;size=6;pointerEvents=1;points=[];fillColor=none;resizable=0;rotatable=0;perimeter=centerPerimeter;snapToPoint=1;" vertex="1" parent="1">
                    <mxGeometry x="200" y="350" width="20" height="20" as="geometry"/>
                </mxCell>
                <mxCell id="47" value="" style="shape=waypoint;sketch=0;size=6;pointerEvents=1;points=[];fillColor=none;resizable=0;rotatable=0;perimeter=centerPerimeter;snapToPoint=1;" vertex="1" parent="1">
                    <mxGeometry x="740" y="350" width="20" height="20" as="geometry"/>
                </mxCell>
                <mxCell id="38" style="edgeStyle=none;html=1;exitX=0.5;exitY=1;exitDx=0;exitDy=0;entryX=0.514;entryY=0.307;entryDx=0;entryDy=0;entryPerimeter=0;" edge="1" parent="1" source="2" target="39">
                    <mxGeometry relative="1" as="geometry">
                        <mxPoint x="739.9999999999998" y="330.0000000000001" as="targetPoint"/>
                        <Array as="points">
                            <mxPoint x="140" y="260"/>
                            <mxPoint x="730" y="260"/>
                        </Array>
                    </mxGeometry>
                </mxCell>
                <mxCell id="48" style="edgeStyle=none;html=1;exitX=0.5;exitY=1;exitDx=0;exitDy=0;entryX=0.686;entryY=-0.064;entryDx=0;entryDy=0;entryPerimeter=0;" edge="1" parent="1" source="8" target="47">
                    <mxGeometry relative="1" as="geometry">
                        <Array as="points">
                            <mxPoint x="780" y="260"/>
                            <mxPoint x="750" y="260"/>
                        </Array>
                    </mxGeometry>
                </mxCell>
                <mxCell id="49" value="" style="shape=waypoint;sketch=0;size=6;pointerEvents=1;points=[];fillColor=none;resizable=0;rotatable=0;perimeter=centerPerimeter;snapToPoint=1;" vertex="1" parent="1">
                    <mxGeometry x="790" y="350" width="20" height="20" as="geometry"/>
                </mxCell>
                <mxCell id="50" value="" style="shape=waypoint;sketch=0;size=6;pointerEvents=1;points=[];fillColor=none;resizable=0;rotatable=0;perimeter=centerPerimeter;snapToPoint=1;" vertex="1" parent="1">
                    <mxGeometry x="840" y="350" width="20" height="20" as="geometry"/>
                </mxCell>
                <mxCell id="51" style="edgeStyle=none;html=1;exitX=0.5;exitY=1;exitDx=0;exitDy=0;entryX=0.329;entryY=0.336;entryDx=0;entryDy=0;entryPerimeter=0;" edge="1" parent="1" source="4" target="49">
                    <mxGeometry relative="1" as="geometry">
                        <Array as="points">
                            <mxPoint x="380" y="300"/>
                            <mxPoint x="800" y="300"/>
                        </Array>
                    </mxGeometry>
                </mxCell>
                <mxCell id="52" style="edgeStyle=none;html=1;exitX=0.5;exitY=1;exitDx=0;exitDy=0;entryX=0.871;entryY=0.164;entryDx=0;entryDy=0;entryPerimeter=0;" edge="1" parent="1" source="10" target="50">
                    <mxGeometry relative="1" as="geometry">
                        <Array as="points">
                            <mxPoint x="1020" y="300"/>
                            <mxPoint x="850" y="300"/>
                        </Array>
                    </mxGeometry>
                </mxCell>
                <mxCell id="53" value="" style="group;rotation=0;" vertex="1" connectable="0" parent="1">
                    <mxGeometry x="697" y="290" width="78" height="70" as="geometry"/>
                </mxCell>
                <mxCell id="54" value="i_sign_a" style="text;html=1;align=center;verticalAlign=middle;resizable=0;points=[];autosize=1;strokeColor=none;fillColor=none;rotation=-90;" vertex="1" parent="53">
                    <mxGeometry x="-13" y="23" width="70" height="30" as="geometry"/>
                </mxCell>
                <mxCell id="60" value="" style="group;rotation=0;" vertex="1" connectable="0" parent="1">
                    <mxGeometry x="720" y="290" width="78" height="70" as="geometry"/>
                </mxCell>
                <mxCell id="61" value="i_sign_b" style="text;html=1;align=center;verticalAlign=middle;resizable=0;points=[];autosize=1;strokeColor=none;fillColor=none;rotation=-90;" vertex="1" parent="60">
                    <mxGeometry x="-13" y="23" width="70" height="30" as="geometry"/>
                </mxCell>
                <mxCell id="62" value="" style="group;rotation=0;" vertex="1" connectable="0" parent="1">
                    <mxGeometry x="768" y="290" width="78" height="70" as="geometry"/>
                </mxCell>
                <mxCell id="63" value="i_man_a" style="text;html=1;align=center;verticalAlign=middle;resizable=0;points=[];autosize=1;strokeColor=none;fillColor=none;rotation=-90;" vertex="1" parent="62">
                    <mxGeometry x="-13" y="23" width="70" height="30" as="geometry"/>
                </mxCell>
                <mxCell id="64" value="" style="endArrow=none;html=1;" edge="1" parent="62">
                    <mxGeometry width="50" height="50" relative="1" as="geometry">
                        <mxPoint x="38" y="36" as="sourcePoint"/>
                        <mxPoint x="28" y="46" as="targetPoint"/>
                        <Array as="points">
                            <mxPoint x="28" y="46"/>
                        </Array>
                    </mxGeometry>
                </mxCell>
                <mxCell id="65" value="23" style="edgeLabel;html=1;align=center;verticalAlign=middle;resizable=0;points=[];labelBackgroundColor=none;rotation=-90;" vertex="1" connectable="0" parent="64">
                    <mxGeometry x="-0.6677" relative="1" as="geometry">
                        <mxPoint x="7" y="3" as="offset"/>
                    </mxGeometry>
                </mxCell>
                <mxCell id="67" value="" style="group;rotation=0;" vertex="1" connectable="0" parent="1">
                    <mxGeometry x="817" y="290" width="78" height="70" as="geometry"/>
                </mxCell>
                <mxCell id="68" value="i_man_b" style="text;html=1;align=center;verticalAlign=middle;resizable=0;points=[];autosize=1;strokeColor=none;fillColor=none;rotation=-90;" vertex="1" parent="67">
                    <mxGeometry x="-13" y="23" width="70" height="30" as="geometry"/>
                </mxCell>
                <mxCell id="69" value="" style="endArrow=none;html=1;" edge="1" parent="67">
                    <mxGeometry width="50" height="50" relative="1" as="geometry">
                        <mxPoint x="38" y="36" as="sourcePoint"/>
                        <mxPoint x="28" y="46" as="targetPoint"/>
                        <Array as="points">
                            <mxPoint x="28" y="46"/>
                        </Array>
                    </mxGeometry>
                </mxCell>
                <mxCell id="70" value="23" style="edgeLabel;html=1;align=center;verticalAlign=middle;resizable=0;points=[];labelBackgroundColor=none;rotation=-90;" vertex="1" connectable="0" parent="69">
                    <mxGeometry x="-0.6677" relative="1" as="geometry">
                        <mxPoint x="7" y="3" as="offset"/>
                    </mxGeometry>
                </mxCell>
                <mxCell id="73" style="edgeStyle=none;html=1;exitX=0;exitY=0.5;exitDx=0;exitDy=0;entryX=1;entryY=0.25;entryDx=0;entryDy=0;" edge="1" parent="1" source="72" target="37">
                    <mxGeometry relative="1" as="geometry"/>
                </mxCell>
                <mxCell id="72" value="i_alu_op" style="whiteSpace=wrap;html=1;fillColor=#d5e8d4;strokeColor=#82b366;" vertex="1" parent="1">
                    <mxGeometry x="1080" y="400" width="80" height="40" as="geometry"/>
                </mxCell>
                <mxCell id="79" value="" style="edgeStyle=none;html=1;" edge="1" parent="1" source="74" target="78">
                    <mxGeometry relative="1" as="geometry">
                        <Array as="points">
                            <mxPoint x="760" y="640"/>
                        </Array>
                    </mxGeometry>
                </mxCell>
                <mxCell id="74" value="" style="shape=waypoint;sketch=0;size=6;pointerEvents=1;points=[];fillColor=none;resizable=0;rotatable=0;perimeter=centerPerimeter;snapToPoint=1;" vertex="1" parent="1">
                    <mxGeometry x="749" y="590" width="20" height="20" as="geometry"/>
                </mxCell>
                <mxCell id="86" value="" style="edgeStyle=none;html=1;" edge="1" parent="1" source="75" target="85">
                    <mxGeometry relative="1" as="geometry"/>
                </mxCell>
                <mxCell id="75" value="" style="shape=waypoint;sketch=0;size=6;pointerEvents=1;points=[];fillColor=none;resizable=0;rotatable=0;perimeter=centerPerimeter;snapToPoint=1;" vertex="1" parent="1">
                    <mxGeometry x="810" y="590" width="20" height="20" as="geometry"/>
                </mxCell>
                <mxCell id="92" value="" style="edgeStyle=none;html=1;" edge="1" parent="1" source="76" target="91">
                    <mxGeometry relative="1" as="geometry">
                        <Array as="points">
                            <mxPoint x="880" y="680"/>
                            <mxPoint x="174" y="680"/>
                        </Array>
                    </mxGeometry>
                </mxCell>
                <mxCell id="133" value="" style="edgeStyle=none;html=1;entryX=0.771;entryY=0.021;entryDx=0;entryDy=0;entryPerimeter=0;" edge="1" parent="1" source="76" target="132">
                    <mxGeometry relative="1" as="geometry">
                        <Array as="points">
                            <mxPoint x="880" y="680"/>
                            <mxPoint x="850" y="680"/>
                            <mxPoint x="920" y="680"/>
                            <mxPoint x="920" y="870"/>
                            <mxPoint x="850" y="870"/>
                        </Array>
                    </mxGeometry>
                </mxCell>
                <mxCell id="76" value="" style="shape=waypoint;sketch=0;size=6;pointerEvents=1;points=[];fillColor=none;resizable=0;rotatable=0;perimeter=centerPerimeter;snapToPoint=1;" vertex="1" parent="1">
                    <mxGeometry x="870" y="590" width="20" height="20" as="geometry"/>
                </mxCell>
                <mxCell id="78" value="" style="shape=waypoint;sketch=0;size=6;pointerEvents=1;points=[];fillColor=none;resizable=0;rotatable=0;perimeter=centerPerimeter;snapToPoint=1;" vertex="1" parent="1">
                    <mxGeometry x="630" y="630" width="20" height="20" as="geometry"/>
                </mxCell>
                <mxCell id="80" value="" style="group;rotation=90;" vertex="1" connectable="0" parent="1">
                    <mxGeometry x="659" y="614" width="78" height="70" as="geometry"/>
                </mxCell>
                <mxCell id="81" value="o_sign_result" style="text;html=1;align=center;verticalAlign=middle;resizable=0;points=[];autosize=1;strokeColor=none;fillColor=none;rotation=0;" vertex="1" parent="80">
                    <mxGeometry x="-9" y="3" width="90" height="30" as="geometry"/>
                </mxCell>
                <mxCell id="85" value="" style="shape=waypoint;sketch=0;size=6;pointerEvents=1;points=[];fillColor=none;resizable=0;rotatable=0;perimeter=centerPerimeter;snapToPoint=1;" vertex="1" parent="1">
                    <mxGeometry x="810" y="710" width="20" height="20" as="geometry"/>
                </mxCell>
                <mxCell id="87" value="" style="group;rotation=0;" vertex="1" connectable="0" parent="1">
                    <mxGeometry x="786" y="600" width="78" height="70" as="geometry"/>
                </mxCell>
                <mxCell id="88" value="o_mantisa" style="text;html=1;align=center;verticalAlign=middle;resizable=0;points=[];autosize=1;strokeColor=none;fillColor=none;rotation=-90;" vertex="1" parent="87">
                    <mxGeometry x="-18" y="23" width="80" height="30" as="geometry"/>
                </mxCell>
                <mxCell id="89" value="" style="endArrow=none;html=1;" edge="1" parent="87">
                    <mxGeometry width="50" height="50" relative="1" as="geometry">
                        <mxPoint x="38" y="36" as="sourcePoint"/>
                        <mxPoint x="28" y="46" as="targetPoint"/>
                        <Array as="points">
                            <mxPoint x="28" y="46"/>
                        </Array>
                    </mxGeometry>
                </mxCell>
                <mxCell id="90" value="28" style="edgeLabel;html=1;align=center;verticalAlign=middle;resizable=0;points=[];labelBackgroundColor=none;rotation=-90;" vertex="1" connectable="0" parent="89">
                    <mxGeometry x="-0.6677" relative="1" as="geometry">
                        <mxPoint x="7" y="3" as="offset"/>
                    </mxGeometry>
                </mxCell>
                <mxCell id="98" value="" style="edgeStyle=none;html=1;" edge="1" parent="1" source="96" target="97">
                    <mxGeometry relative="1" as="geometry">
                        <Array as="points">
                            <mxPoint x="200" y="780"/>
                        </Array>
                    </mxGeometry>
                </mxCell>
                <mxCell id="125" value="" style="edgeStyle=none;html=1;" edge="1" parent="1" source="96" target="126">
                    <mxGeometry relative="1" as="geometry">
                        <mxPoint x="680" y="950" as="targetPoint"/>
                        <Array as="points">
                            <mxPoint x="680" y="780"/>
                            <mxPoint x="680" y="960"/>
                        </Array>
                    </mxGeometry>
                </mxCell>
                <mxCell id="96" value="" style="shape=waypoint;sketch=0;size=6;pointerEvents=1;points=[];fillColor=none;resizable=0;rotatable=0;perimeter=centerPerimeter;snapToPoint=1;" vertex="1" parent="1">
                    <mxGeometry x="749" y="770" width="20" height="20" as="geometry"/>
                </mxCell>
                <mxCell id="99" value="" style="group;rotation=90;" vertex="1" connectable="0" parent="1">
                    <mxGeometry x="680" y="750" width="86" height="70" as="geometry"/>
                </mxCell>
                <mxCell id="100" value="o_one_position" style="text;html=1;align=center;verticalAlign=middle;resizable=0;points=[];autosize=1;strokeColor=none;fillColor=none;rotation=0;" vertex="1" parent="99">
                    <mxGeometry x="-14" y="3" width="100" height="30" as="geometry"/>
                </mxCell>
                <mxCell id="101" value="" style="endArrow=none;html=1;" edge="1" parent="99">
                    <mxGeometry width="50" height="50" relative="1" as="geometry">
                        <mxPoint x="38" y="34" as="sourcePoint"/>
                        <mxPoint x="28" y="24" as="targetPoint"/>
                        <Array as="points">
                            <mxPoint x="28" y="24"/>
                        </Array>
                    </mxGeometry>
                </mxCell>
                <mxCell id="102" value="5" style="edgeLabel;html=1;align=center;verticalAlign=middle;resizable=0;points=[];labelBackgroundColor=none;rotation=0;" vertex="1" connectable="0" parent="101">
                    <mxGeometry x="-0.6677" relative="1" as="geometry">
                        <mxPoint x="7" y="3" as="offset"/>
                    </mxGeometry>
                </mxCell>
                <mxCell id="105" value="" style="edgeStyle=none;html=1;" edge="1" parent="1" source="103" target="104">
                    <mxGeometry relative="1" as="geometry"/>
                </mxCell>
                <mxCell id="103" value="" style="shape=waypoint;sketch=0;size=6;pointerEvents=1;points=[];fillColor=none;resizable=0;rotatable=0;perimeter=centerPerimeter;snapToPoint=1;" vertex="1" parent="1">
                    <mxGeometry x="810" y="810" width="20" height="20" as="geometry"/>
                </mxCell>
                <mxCell id="104" value="" style="shape=waypoint;sketch=0;size=6;pointerEvents=1;points=[];fillColor=none;resizable=0;rotatable=0;perimeter=centerPerimeter;snapToPoint=1;" vertex="1" parent="1">
                    <mxGeometry x="810" y="910" width="20" height="20" as="geometry"/>
                </mxCell>
                <mxCell id="106" value="" style="group;rotation=0;" vertex="1" connectable="0" parent="1">
                    <mxGeometry x="787" y="816" width="78" height="70" as="geometry"/>
                </mxCell>
                <mxCell id="107" value="o_mantisa" style="text;html=1;align=center;verticalAlign=middle;resizable=0;points=[];autosize=1;strokeColor=none;fillColor=none;rotation=-90;" vertex="1" parent="106">
                    <mxGeometry x="-18" y="23" width="80" height="30" as="geometry"/>
                </mxCell>
                <mxCell id="108" value="" style="endArrow=none;html=1;" edge="1" parent="106">
                    <mxGeometry width="50" height="50" relative="1" as="geometry">
                        <mxPoint x="38" y="36" as="sourcePoint"/>
                        <mxPoint x="28" y="46" as="targetPoint"/>
                        <Array as="points">
                            <mxPoint x="28" y="46"/>
                        </Array>
                    </mxGeometry>
                </mxCell>
                <mxCell id="109" value="28" style="edgeLabel;html=1;align=center;verticalAlign=middle;resizable=0;points=[];labelBackgroundColor=none;rotation=-90;" vertex="1" connectable="0" parent="108">
                    <mxGeometry x="-0.6677" relative="1" as="geometry">
                        <mxPoint x="7" y="3" as="offset"/>
                    </mxGeometry>
                </mxCell>
                <mxCell id="111" value="FPU_rounding" style="whiteSpace=wrap;html=1;fillColor=#ffe6cc;strokeColor=#d79b00;" vertex="1" parent="1">
                    <mxGeometry x="760" y="1160" width="120" height="100" as="geometry"/>
                </mxCell>
                <mxCell id="113" value="" style="edgeStyle=none;html=1;" edge="1" parent="1" source="112" target="111">
                    <mxGeometry relative="1" as="geometry"/>
                </mxCell>
                <mxCell id="112" value="" style="shape=waypoint;sketch=0;size=6;pointerEvents=1;points=[];fillColor=none;resizable=0;rotatable=0;perimeter=centerPerimeter;snapToPoint=1;" vertex="1" parent="1">
                    <mxGeometry x="810" y="1010" width="20" height="20" as="geometry"/>
                </mxCell>
                <mxCell id="114" value="" style="group;rotation=0;" vertex="1" connectable="0" parent="1">
                    <mxGeometry x="787" y="1020" width="78" height="70" as="geometry"/>
                </mxCell>
                <mxCell id="115" value="o_mantisa" style="text;html=1;align=center;verticalAlign=middle;resizable=0;points=[];autosize=1;strokeColor=none;fillColor=none;rotation=-90;" vertex="1" parent="114">
                    <mxGeometry x="-18" y="23" width="80" height="30" as="geometry"/>
                </mxCell>
                <mxCell id="116" value="" style="endArrow=none;html=1;" edge="1" parent="114">
                    <mxGeometry width="50" height="50" relative="1" as="geometry">
                        <mxPoint x="38" y="36" as="sourcePoint"/>
                        <mxPoint x="28" y="46" as="targetPoint"/>
                        <Array as="points">
                            <mxPoint x="28" y="46"/>
                        </Array>
                    </mxGeometry>
                </mxCell>
                <mxCell id="117" value="28" style="edgeLabel;html=1;align=center;verticalAlign=middle;resizable=0;points=[];labelBackgroundColor=none;rotation=-90;" vertex="1" connectable="0" parent="116">
                    <mxGeometry x="-0.6677" relative="1" as="geometry">
                        <mxPoint x="7" y="3" as="offset"/>
                    </mxGeometry>
                </mxCell>
                <mxCell id="120" value="" style="edgeStyle=none;html=1;" edge="1" parent="1" source="118" target="119">
                    <mxGeometry relative="1" as="geometry"/>
                </mxCell>
                <mxCell id="118" value="" style="shape=waypoint;sketch=0;size=6;pointerEvents=1;points=[];fillColor=none;resizable=0;rotatable=0;perimeter=centerPerimeter;snapToPoint=1;" vertex="1" parent="1">
                    <mxGeometry x="810" y="1250" width="20" height="20" as="geometry"/>
                </mxCell>
                <mxCell id="119" value="" style="shape=waypoint;sketch=0;size=6;pointerEvents=1;points=[];fillColor=none;resizable=0;rotatable=0;perimeter=centerPerimeter;snapToPoint=1;" vertex="1" parent="1">
                    <mxGeometry x="810" y="1350" width="20" height="20" as="geometry"/>
                </mxCell>
                <mxCell id="121" value="" style="group;rotation=0;" vertex="1" connectable="0" parent="1">
                    <mxGeometry x="787" y="1260" width="78" height="70" as="geometry"/>
                </mxCell>
                <mxCell id="122" value="o_mantisa" style="text;html=1;align=center;verticalAlign=middle;resizable=0;points=[];autosize=1;strokeColor=none;fillColor=none;rotation=-90;" vertex="1" parent="121">
                    <mxGeometry x="-18" y="23" width="80" height="30" as="geometry"/>
                </mxCell>
                <mxCell id="123" value="" style="endArrow=none;html=1;" edge="1" parent="121">
                    <mxGeometry width="50" height="50" relative="1" as="geometry">
                        <mxPoint x="38" y="36" as="sourcePoint"/>
                        <mxPoint x="28" y="46" as="targetPoint"/>
                        <Array as="points">
                            <mxPoint x="28" y="46"/>
                        </Array>
                    </mxGeometry>
                </mxCell>
                <mxCell id="124" value="23" style="edgeLabel;html=1;align=center;verticalAlign=middle;resizable=0;points=[];labelBackgroundColor=none;rotation=-90;" vertex="1" connectable="0" parent="123">
                    <mxGeometry x="-0.6677" relative="1" as="geometry">
                        <mxPoint x="7" y="3" as="offset"/>
                    </mxGeometry>
                </mxCell>
                <mxCell id="126" value="" style="shape=waypoint;sketch=0;size=6;pointerEvents=1;points=[];fillColor=none;resizable=0;rotatable=0;perimeter=centerPerimeter;snapToPoint=1;" vertex="1" parent="1">
                    <mxGeometry x="749" y="950" width="20" height="20" as="geometry"/>
                </mxCell>
                <mxCell id="127" value="" style="group;rotation=90;" vertex="1" connectable="0" parent="1">
                    <mxGeometry x="690" y="930" width="91" height="70" as="geometry"/>
                </mxCell>
                <mxCell id="128" value="i_shiff_mantissa" style="text;html=1;align=center;verticalAlign=middle;resizable=0;points=[];autosize=1;strokeColor=none;fillColor=none;rotation=0;" vertex="1" parent="127">
                    <mxGeometry x="-19" y="3" width="110" height="30" as="geometry"/>
                </mxCell>
                <mxCell id="129" value="" style="endArrow=none;html=1;" edge="1" parent="127">
                    <mxGeometry width="50" height="50" relative="1" as="geometry">
                        <mxPoint x="38" y="34" as="sourcePoint"/>
                        <mxPoint x="28" y="24" as="targetPoint"/>
                        <Array as="points">
                            <mxPoint x="28" y="24"/>
                        </Array>
                    </mxGeometry>
                </mxCell>
                <mxCell id="130" value="5" style="edgeLabel;html=1;align=center;verticalAlign=middle;resizable=0;points=[];labelBackgroundColor=none;rotation=0;" vertex="1" connectable="0" parent="129">
                    <mxGeometry x="-0.6677" relative="1" as="geometry">
                        <mxPoint x="7" y="3" as="offset"/>
                    </mxGeometry>
                </mxCell>
                <mxCell id="94" value="o_overflow" style="text;html=1;align=center;verticalAlign=middle;resizable=0;points=[];autosize=1;strokeColor=none;fillColor=none;rotation=-90;" vertex="1" parent="1">
                    <mxGeometry x="831" y="625" width="80" height="30" as="geometry"/>
                </mxCell>
                <mxCell id="132" value="" style="shape=waypoint;sketch=0;size=6;pointerEvents=1;points=[];fillColor=none;resizable=0;rotatable=0;perimeter=centerPerimeter;snapToPoint=1;" vertex="1" parent="1">
                    <mxGeometry x="840" y="910" width="20" height="20" as="geometry"/>
                </mxCell>
                <mxCell id="138" style="edgeStyle=none;html=1;exitX=0.5;exitY=1;exitDx=0;exitDy=0;" edge="1" parent="1" source="135">
                    <mxGeometry relative="1" as="geometry">
                        <mxPoint x="179.66666666666674" y="1150" as="targetPoint"/>
                    </mxGeometry>
                </mxCell>
                <mxCell id="135" value="EXP_adjust_value" style="whiteSpace=wrap;html=1;fillColor=#ffe6cc;strokeColor=#d79b00;" vertex="1" parent="1">
                    <mxGeometry x="120" y="800" width="120" height="120" as="geometry"/>
                </mxCell>
                <mxCell id="137" value="" style="shape=waypoint;sketch=0;size=6;pointerEvents=1;points=[];fillColor=none;resizable=0;rotatable=0;perimeter=centerPerimeter;snapToPoint=1;" vertex="1" parent="1">
                    <mxGeometry x="140" y="790" width="20" height="20" as="geometry"/>
                </mxCell>
                <mxCell id="91" value="" style="shape=waypoint;sketch=0;size=6;pointerEvents=1;points=[];fillColor=none;resizable=0;rotatable=0;perimeter=centerPerimeter;snapToPoint=1;" vertex="1" parent="1">
                    <mxGeometry x="164" y="790" width="20" height="20" as="geometry"/>
                </mxCell>
                <mxCell id="97" value="" style="shape=waypoint;sketch=0;size=6;pointerEvents=1;points=[];fillColor=none;resizable=0;rotatable=0;perimeter=centerPerimeter;snapToPoint=1;" vertex="1" parent="1">
                    <mxGeometry x="190" y="790" width="20" height="20" as="geometry"/>
                </mxCell>
                <mxCell id="139" value="" style="group" vertex="1" connectable="0" parent="1">
                    <mxGeometry x="155" y="925" width="65" height="70" as="geometry"/>
                </mxCell>
                <mxCell id="140" value="o_exp_result" style="text;html=1;align=center;verticalAlign=middle;resizable=0;points=[];autosize=1;strokeColor=none;fillColor=none;rotation=-90;" vertex="1" parent="139">
                    <mxGeometry x="-30" y="20" width="90" height="30" as="geometry"/>
                </mxCell>
                <mxCell id="141" value="" style="endArrow=none;html=1;" edge="1" parent="139">
                    <mxGeometry width="50" height="50" relative="1" as="geometry">
                        <mxPoint x="31" y="30" as="sourcePoint"/>
                        <mxPoint x="21" y="40" as="targetPoint"/>
                        <Array as="points">
                            <mxPoint x="21" y="40"/>
                        </Array>
                    </mxGeometry>
                </mxCell>
                <mxCell id="142" value="8" style="edgeLabel;html=1;align=center;verticalAlign=middle;resizable=0;points=[];labelBackgroundColor=none;rotation=-90;" vertex="1" connectable="0" parent="141">
                    <mxGeometry x="-0.6677" relative="1" as="geometry">
                        <mxPoint x="7" y="3" as="offset"/>
                    </mxGeometry>
                </mxCell>
            </root>
        </mxGraphModel>
    </diagram>
</mxfile>